
<svg version="1.1" xmlns="http://www.w3.org/2000/svg" width="537" height="508" viewBox="0 0 537 508" preserveAspectRatio="xMidYMid meet">
<path d="M0 0 C1.36973969 0.00173721 1.36973969 0.00173721 2.76715088 0.00350952 C20.78587153 0.04854944 38.24672152 1.08836308 55.75927734 5.62329102 C58.67834139 6.37447769 61.61261396 7.00728882 64.5625 7.625 C76.05909012 10.26424124 87.36435623 14.0609142 98 19.16796875 C100.44526006 20.31614375 102.91263822 21.29134154 105.4375 22.25 C117.26195138 26.90868417 128.06890182 34.12674884 138.75 40.9375 C139.33692627 41.30979736 139.92385254 41.68209473 140.52856445 42.06567383 C144.00491803 44.29901879 147.23786989 46.70213051 150.4375 49.3125 C151.4275 49.9725 152.4175 50.6325 153.4375 51.3125 C153.4375 51.9725 153.4375 52.6325 153.4375 53.3125 C154.10136719 53.49425781 154.76523437 53.67601562 155.44921875 53.86328125 C159.78686969 55.9669002 162.81799675 59.15839758 166.25 62.5 C167.60937666 63.80734311 168.97005261 65.11333658 170.33203125 66.41796875 C171.00508301 67.06403076 171.67813477 67.71009277 172.37158203 68.37573242 C175.05707451 70.89334195 177.83164699 73.29685837 180.63354492 75.68359375 C183.50975995 78.28071199 186.2187715 81.12727991 188.4375 84.3125 C188.4375 84.9725 188.4375 85.6325 188.4375 86.3125 C189.0975 86.3125 189.7575 86.3125 190.4375 86.3125 C201.14333462 97.61823052 209.64500387 111.2384125 217.44873047 124.63183594 C218.84573984 127.00640692 220.30229341 129.34359409 221.75 131.6875 C224.38346138 136.08624868 226.48284009 140.57855802 228.4375 145.3125 C228.85 146.29734375 229.2625 147.2821875 229.6875 148.296875 C230.52592562 150.30310774 231.36091018 152.3107843 232.19140625 154.3203125 C233.08479725 156.46557114 234.00460494 158.59990187 234.94140625 160.7265625 C237.59721503 167.09218249 239.49188588 173.7031555 241.4375 180.3125 C241.75920166 181.3960376 241.75920166 181.3960376 242.08740234 182.50146484 C247.67910588 201.61175915 251.00619287 221.3939524 251.4375 241.3125 C251.45264648 242.00214844 251.46779297 242.69179687 251.48339844 243.40234375 C251.57693527 248.37576583 251.53709956 253.33955238 251.4375 258.3125 C251.42074219 259.57578125 251.40398437 260.8390625 251.38671875 262.140625 C249.73700886 309.46373143 231.89946299 357.31379693 203.79296875 395.22265625 C200.12982058 400.02788047 196.34073523 404.70073585 192.4375 409.3125 C191.97585449 409.86437988 191.51420898 410.41625977 191.03857422 410.98486328 C182.16382636 421.59298321 173.046291 431.47149341 162.1875 440.11328125 C160.43265602 441.5166579 158.7004477 442.94915255 157 444.41796875 C133.60022766 464.49058596 102.74894905 481.57693507 72.6015625 488.70703125 C70.4377244 489.22502781 70.4377244 489.22502781 68.640625 490.29296875 C65.42047923 491.78314259 62.0362432 492.23248049 58.5625 492.8125 C57.16854821 493.04784251 55.77529576 493.28736875 54.3828125 493.53125 C53.76937988 493.63373047 53.15594727 493.73621094 52.52392578 493.84179688 C50.29757781 494.30055283 50.29757781 494.30055283 47.67944336 495.29199219 C44.01342307 496.4459921 40.42559541 497.00805984 36.62109375 497.421875 C35.84881943 497.50596619 35.0765451 497.59005737 34.28086853 497.67669678 C24.4593356 498.63669307 14.6204984 498.61177038 4.76098633 498.57324219 C1.50778525 498.56252565 -1.74486245 498.57320009 -4.99804688 498.5859375 C-21.6534614 498.59762152 -38.24280765 498.12461004 -54.3515625 493.5 C-57.40140101 492.63570876 -60.45826204 491.80829464 -63.5234375 491 C-81.02757356 486.29644662 -97.5515908 479.81512478 -113.5625 471.3125 C-114.46613281 470.84457031 -115.36976563 470.37664062 -116.30078125 469.89453125 C-140.22879424 457.23927105 -163.11937425 440.211662 -181.5625 420.3125 C-181.5625 419.6525 -181.5625 418.9925 -181.5625 418.3125 C-182.2225 418.3125 -182.8825 418.3125 -183.5625 418.3125 C-185.00062673 416.74309199 -186.3628005 415.10375965 -187.6875 413.4375 C-188.90759766 411.90609375 -188.90759766 411.90609375 -190.15234375 410.34375 C-191.34537109 408.84328125 -191.34537109 408.84328125 -192.5625 407.3125 C-193.49255859 406.21421875 -193.49255859 406.21421875 -194.44140625 405.09375 C-224.5589475 369.18687576 -244.41324315 322.01576311 -248.5625 275.3125 C-253.02764086 223.39225741 -243.13892424 172.13893766 -217.3112793 126.60668945 C-210.03514241 114.09786008 -201.7525189 102.48007829 -192.5625 91.3125 C-191.83909424 90.43247314 -191.83909424 90.43247314 -191.10107422 89.53466797 C-180.9193253 77.22990179 -170.13063819 66.20340166 -157.5625 56.3125 C-156.75296875 55.64734375 -155.9434375 54.9821875 -155.109375 54.296875 C-148.52569921 48.90250839 -141.62478489 44.04918986 -134.5625 39.3125 C-133.62148437 38.68085937 -132.68046875 38.04921875 -131.7109375 37.3984375 C-126.26919692 33.83856686 -120.72609675 30.75599999 -114.875 27.921875 C-112.42048184 26.72934967 -109.98867731 25.51330744 -107.5625 24.265625 C-94.73270995 17.69017003 -94.73270995 17.69017003 -88.65234375 15.98046875 C-86.33473394 15.27880326 -86.33473394 15.27880326 -83.3125 13.89453125 C-79.49483806 12.23390662 -75.61812913 10.97932042 -71.625 9.8125 C-70.8935376 9.59746826 -70.1620752 9.38243652 -69.40844727 9.16088867 C-63.08134185 7.35595644 -56.72915634 6.08790581 -50.24609375 4.98828125 C-46.5364891 4.35504768 -46.5364891 4.35504768 -42.84570312 3.33935547 C-38.70080236 2.29465194 -34.59395643 1.66751467 -30.34765625 1.20703125 C-29.1898037 1.08120415 -29.1898037 1.08120415 -28.00856018 0.95283508 C-18.68216017 0.0217771 -9.36490351 -0.03700068 0 0 Z " fill="#F2E3DB" transform="translate(263.5625,3.6875)" />
<path d="M0 0 C17.82 0 35.64 0 54 0 C54 1.65 54 3.3 54 5 C53.195625 5.309375 52.39125 5.61875 51.5625 5.9375 C49.10919595 6.76335345 49.10919595 6.76335345 48 8 C47.71938397 12.77047254 48.01818307 16.61914152 50 21 C50.99 21.33 51.98 21.66 53 22 C53 23.65 53 25.3 53 27 C53.66 27 54.32 27 55 27 C55.350625 28.03125 55.70125 29.0625 56.0625 30.125 C58.07460375 35.53252884 60.75091528 40.60447347 63.37890625 45.73046875 C64.73033013 48.45611161 65.92394817 51.15729591 67 54 C67.66 54 68.32 54 69 54 C69.35191406 54.65484375 69.70382813 55.3096875 70.06640625 55.984375 C72.84269276 61.11651821 75.68994564 66.18094643 78.6875 71.1875 C81.35773303 75.71809319 83.26372448 80.05161476 85 85 C86.81710041 88.48277579 87.68974811 89.79316541 91 92 C92.28125 94.20703125 92.28125 94.20703125 93.5 96.8125 C94.79069171 99.51367817 96.04815894 102.07779521 97.625 104.625 C99.21348158 107.36874091 100.23545646 110.15194193 101.3046875 113.12890625 C102.06263787 115.16855923 102.96378371 117.08698532 104 119 C104.66 119 105.32 119 106 119 C106.3403125 119.63164062 106.680625 120.26328125 107.03125 120.9140625 C114.0815203 133.99698095 114.0815203 133.99698095 121.73828125 146.7265625 C123 149 123 149 123 152 C123.66 152 124.32 152 125 152 C125.90492188 153.75376953 125.90492188 153.75376953 126.828125 155.54296875 C127.63513122 157.09129464 128.44243884 158.63946347 129.25 160.1875 C129.64574219 160.95642578 130.04148437 161.72535156 130.44921875 162.51757812 C132.64937925 166.71952401 134.95066322 170.3420771 138 174 C138.87090024 175.47850506 139.7069978 176.97829308 140.5 178.5 C142.38380684 181.99109158 144.4889254 184.92190855 147 188 C147.99153401 189.6952033 148.98143128 191.39174858 149.93359375 193.109375 C151.83527627 196.48085609 153.91933625 199.73699081 156 203 C156.56267578 203.89332031 156.56267578 203.89332031 157.13671875 204.8046875 C159.06479559 207.9258693 159.06479559 207.9258693 162 210 C162.433125 211.0725 162.86625 212.145 163.3125 213.25 C164.83528873 217.00672752 166.88841346 219.35515144 170 222 C170.99 222.33 171.98 222.66 173 223 C172.98616984 205.57072754 172.94382673 188.14178595 172.86790943 170.71267891 C172.83331501 162.6192946 172.80791122 154.52607963 172.80444336 146.43261719 C172.80139571 139.37504989 172.7807982 132.31778462 172.73947543 125.2603339 C172.71821583 121.5263501 172.70550817 117.79279489 172.71384621 114.05875015 C172.72284438 109.88135822 172.69264604 105.70510177 172.65942383 101.52783203 C172.66804947 100.30143509 172.67667511 99.07503815 172.68556213 97.81147766 C172.59562981 91.04833612 171.6720345 86.0142813 168.50391674 80.01098442 C165.78675805 76.37769566 162.18611602 74.5569414 158 73 C154.64745324 72.14360715 154.64745324 72.14360715 152 72 C152 70.68 152 69.36 152 68 C168.5 68 185 68 202 68 C202 69.32 202 70.64 202 72 C197.545 72.495 197.545 72.495 193 73 C193 73.66 193 74.32 193 75 C192.21182546 75.37920751 191.42365091 75.75841501 190.61159229 76.14911366 C187.84012936 77.78001029 187.84012936 77.78001029 186.87066936 80.5329771 C184.89841261 89.79452218 184.55731969 98.75754964 184.56762695 108.1730957 C184.55859027 109.85972807 184.54825844 111.54635392 184.53674316 113.23297119 C184.50937067 117.77133062 184.49991576 122.30956478 184.49388909 126.847996 C184.48445354 131.60592291 184.4582463 136.36375813 184.43388367 141.12162781 C184.39035669 150.11329061 184.3617252 159.10493547 184.33856028 168.09667128 C184.31143428 178.3410874 184.26752757 188.58541063 184.22227156 198.82976019 C184.12962314 219.8864567 184.05785211 240.94318101 184 262 C178.51705411 262.12306477 174.39925553 261.37407551 169.375 259.25 C168.73304688 258.99734375 168.09109375 258.7446875 167.4296875 258.484375 C158.51404665 254.83042383 152.54613393 247.80963464 146.4375 240.625 C145.96892578 240.08617187 145.50035156 239.54734375 145.01757812 238.9921875 C142.6432224 236.20273462 140.60384011 233.45524074 138.8203125 230.25 C136.91928425 226.85588947 134.7701295 224.69910054 132 222 C129.27418243 218.22579106 128.07774792 214.32714134 126.84375 209.890625 C126.5653125 209.26671875 126.286875 208.6428125 126 208 C125.01 207.67 124.02 207.34 123 207 C122.19140625 205.29296875 122.19140625 205.29296875 121.5625 203.1875 C120.31960492 199.50460564 118.80277893 197.71236671 116 195 C115.29835358 193.01200182 114.62627128 191.01301483 114 189 C113.34 188.67 112.68 188.34 112 188 C111.29289322 186.35008418 110.63437344 184.6792238 110 183 C108.28789345 179.23336558 106.27935362 175.89597265 103.9375 172.5 C101.58950504 169.06742751 100.2889592 165.9589461 99 162 C97.68799596 160.64567325 96.35368596 159.31266518 95 158 C93.98440599 156.00787329 92.98210371 154.0088485 92 152 C91.34 151.67 90.68 151.34 90 151 C89.27232727 149.01543802 88.54766203 147.02964509 87.84765625 145.03515625 C87.04264946 142.817487 87.04264946 142.817487 85.0625 140.6875 C82.96040758 137.94840988 82.15698734 135.86874273 81.0625 132.625 C79.35982412 127.61792152 77.18398542 124.1894545 74 120 C73.33333333 118.33333333 72.66666667 116.66666667 72 115 C70.515 114.01 70.515 114.01 69 113 C67.94127237 110.95594986 66.97249208 108.86446436 66.0625 106.75 C64.01905965 102.13824558 61.88783899 98.10961703 59 94 C59 93.34 59 92.68 59 92 C58.34 92 57.68 92 57 92 C56.79375 91.030625 56.5875 90.06125 56.375 89.0625 C54.9833699 84.13128901 52.15410994 79.99406313 49 76 C48.01 75.505 48.01 75.505 47 75 C45.89937805 71.9302381 44.94737535 68.85074216 44.03125 65.72265625 C42.66379396 61.31737064 40.93106817 58.50536248 38 55 C36.40673373 52.32995007 34.98715258 49.57541632 33.5625 46.8125 C33.16780518 46.0594458 32.77311035 45.3063916 32.36645508 44.53051758 C30.23499305 40.44868668 28.18228294 36.33813532 26.1875 32.1875 C24.52339026 28.80229046 22.76945448 26.59077999 20 24 C17.95331607 20.91123158 16.28344896 17.81255367 15.0625 14.3125 C13.67500846 11.29266548 11.60772713 9.99010754 9 8 C9 7.34 9 6.68 9 6 C6.03 5.67 3.06 5.34 0 5 C0 3.35 0 1.7 0 0 Z " fill="#AD7052" transform="translate(171,125)" />
<path d="M0 0 C11.88 0 23.76 0 36 0 C40 6 40 6 40 8 C40.66 8 41.32 8 42 8 C44.93301522 11.60986489 47.05960412 14.78616208 48.5625 19.1875 C49.77753415 22.7245994 51.25357043 24.41050926 54 27 C59.0547082 33.8699349 64.61203857 41.46329098 66 50 C67.485 50.495 67.485 50.495 69 51 C70.140625 52.6796875 70.140625 52.6796875 71.25 54.875 C73.71750598 59.55578406 76.48070832 63.97919568 79.3515625 68.421875 C81.98506064 72.54061617 84.26134979 76.39598225 85.9375 81 C87.45414047 84.93506717 89.20381029 87.80435462 92 91 C92 91.66 92 92.32 92 93 C92.66 93 93.32 93 94 93 C95.70925719 95.6796424 97.41391802 98.36134468 99.1015625 101.0546875 C100.22944126 102.8045241 101.39838856 104.53055538 102.6484375 106.1953125 C104.05079531 108.10902731 105.14229544 109.78685559 106 112 C106.05562516 115.27570375 105.14315063 117.95319269 104 121 C103.64035156 121.97582031 103.28070313 122.95164062 102.91015625 123.95703125 C100.49823745 130.0831509 97.67341894 135.54234901 94 141 C91.53199953 139.84826645 89.95216435 138.95216435 88 137 C87.24734051 135.29833506 86.49902059 133.59421634 85.796875 131.87109375 C85.0607882 130.14273307 84.19146347 128.47276433 83.3125 126.8125 C82 124 82 124 82 120 C80.515 119.505 80.515 119.505 79 119 C77.61328125 117.22265625 77.61328125 117.22265625 76.3125 115.0625 C75.87550781 114.35222656 75.43851562 113.64195312 74.98828125 112.91015625 C74 111 74 111 74 109 C72.515 108.505 72.515 108.505 71 108 C70.28970667 106.13970794 69.58922712 104.27492252 68.9453125 102.390625 C66.7827222 96.92159499 63.51492617 91.86119501 59.8125 87.3125 C57.54742433 84.42257587 56.4218418 81.37687426 55 78 C53.67541292 75.99419671 52.3440093 73.99284138 51 72 C51 71.34 51 70.68 51 70 C50.34 70 49.68 70 49 70 C48.566875 68.948125 48.13375 67.89625 47.6875 66.8125 C46.69305638 64.46371887 45.67937475 62.48937459 44.3125 60.3125 C43 58 43 58 43 54 C42.01 53.67 41.02 53.34 40 53 C38.34454243 50.79087769 37.26038953 48.47731734 36 46 C36 45.34 36 44.68 36 44 C35.34 44 34.68 44 34 44 C33.34 42.02 32.68 40.04 32 38 C31.34 38 30.68 38 30 38 C30.03731385 54.03907002 30.09738872 70.07787307 30.18390274 86.11674595 C30.22356121 93.5653827 30.25602018 101.01391582 30.27099609 108.46264648 C30.28408158 114.96173489 30.31121966 121.460594 30.35461307 127.95955318 C30.37707461 131.39462212 30.39292003 134.82940991 30.39188385 138.26455879 C29.51862192 160.44166935 29.51862192 160.44166935 36.93121338 180.77027893 C41.09911826 185.26241226 47.24354247 186.47277657 53 188 C53 189.32 53 190.64 53 192 C36.83 192 20.66 192 4 192 C4 190.68 4 189.36 4 188 C5.3303125 187.5978125 5.3303125 187.5978125 6.6875 187.1875 C11.64060407 185.41185892 15.68067586 183.14915517 19 179 C19.92135741 174.81027957 20.12902237 170.79059396 20.14044189 166.51037598 C20.14615204 165.22343338 20.15186218 163.93649078 20.15774536 162.61054993 C20.15899047 161.19674692 20.16011562 159.78294381 20.16113281 158.36914062 C20.16576534 156.8706195 20.17079058 155.37209954 20.17617798 153.87358093 C20.1892574 149.81374592 20.19573756 145.75392741 20.20018864 141.69407463 C20.20312503 139.15622106 20.20723078 136.61837195 20.21169281 134.08052063 C20.22535258 126.13556169 20.23502811 118.190613 20.2388947 110.24564314 C20.24337954 101.08181634 20.2609535 91.9181384 20.2898953 82.75435686 C20.31151098 75.66375184 20.32159883 68.57318872 20.32293582 61.4825511 C20.32398342 57.2502974 20.32988234 53.01818392 20.34775543 48.78596497 C20.36423542 44.80667095 20.36639207 40.82762264 20.35761642 36.84830666 C20.35684616 35.3898382 20.36118747 33.93135652 20.37107468 32.47292137 C20.3838005 30.47852916 20.37612336 28.48403816 20.36749268 26.48962402 C20.36969252 24.81719761 20.36969252 24.81719761 20.3719368 23.1109848 C19.94547408 19.54392971 18.70313843 17.135689 17 14 C17 13.34 17 12.68 17 12 C16.01 11.67 15.02 11.34 14 11 C13.773125 10.38125 13.54625 9.7625 13.3125 9.125 C12.19812314 6.90829533 12.19812314 6.90829533 10.23828125 6.10546875 C6.87113128 4.84200952 3.49666733 3.83888656 0 3 C0 2.01 0 1.02 0 0 Z " fill="#AE7052" transform="translate(146,194)" />
<path d="M0 0 C15.51 0 31.02 0 47 0 C47.495 2.475 47.495 2.475 48 5 C47.29875 5.06316406 46.5975 5.12632812 45.875 5.19140625 C40.56534466 5.87675578 36.69034638 6.71519015 32.5625 10.25 C28.09595405 14.65260767 25.29434403 19.20421304 23 25 C22.21725409 26.7332231 21.42518562 28.46225902 20.625 30.1875 C18.94888518 33.83956251 17.38525841 37.50185076 15.9375 41.25 C14.2987145 45.43653301 12.27714159 49.12885929 10 53 C9.29788106 54.65204456 8.63028587 56.31923769 8 58 C7.00522247 60.33556463 6.00484883 62.66875071 5 65 C4.525625 66.134375 4.05125 67.26875 3.5625 68.4375 C2.17069552 71.61081421 0.66907228 74.67846834 -0.8984375 77.765625 C-2.15736887 80.31920211 -3.33109099 82.90401803 -4.5 85.5 C-5.97948767 88.78573336 -7.49360419 92.037022 -9.125 95.25 C-11.3924263 99.72059356 -13.41280084 104.23840251 -15 109 C-15.66 109 -16.32 109 -17 109 C-17.28875 109.928125 -17.5775 110.85625 -17.875 111.8125 C-19 115 -19 115 -21 118 C-21.39013716 119.9896995 -21.73202649 121.99019869 -22 124 C-23.32 124 -24.64 124 -26 124 C-27.21212121 116.84848485 -27.21212121 116.84848485 -26.375 113.5 C-25.18552029 111.33730963 -23.9085359 109.31581945 -22.5625 107.25 C-20.79623193 104.49564574 -19.56222043 102.00682974 -18.625 98.875 C-16.62369869 92.21569917 -13.19271705 86.14926051 -10 80 C-9.34 80 -8.68 80 -8 80 C-7.9175 78.96875 -7.835 77.9375 -7.75 76.875 C-7 73 -7 73 -5.1171875 70.2109375 C-2.86047621 66.78839749 -1.65594425 63.63415354 -0.375 59.75 C1.79179811 53.20820189 1.79179811 53.20820189 4 51 C5.06337764 48.17150157 5.97833003 45.3103814 6.90234375 42.43359375 C7.26457031 41.63050781 7.62679687 40.82742187 8 40 C8.99 39.67 9.98 39.34 11 39 C11.1546875 38.01 11.1546875 38.01 11.3125 37 C12 34 12 34 13.5 30.5 C15.71091636 24.89182192 15.7364814 18.96097253 16 13 C15.34 13 14.68 13 14 13 C12.375 11.1875 12.375 11.1875 11 9 C11 8.01 11 7.02 11 6 C7.37 5.34 3.74 4.68 0 4 C0 2.68 0 1.36 0 0 Z " fill="#A96F52" transform="translate(313,125)" />
<path d="M0 0 C0.33 0 0.66 0 1 0 C1.17942163 3.94727588 1.09350689 6.5980513 -1 10 C-0.34 10.33 0.32 10.66 1 11 C0.7397104 13.34260643 0.40047444 15.67724823 0 18 C-0.66 18.66 -1.32 19.32 -2 20 C-2.46960522 21.46322113 -2.87784909 22.94651078 -3.25 24.4375 C-4.6822152 29.47195343 -6.86766761 33.67217492 -9.453125 38.203125 C-11.47286838 41.85498425 -13.15192894 45.62157385 -14.84375 49.43359375 C-15.8825499 51.73930839 -16.97863994 53.99636034 -18.125 56.25 C-20.3924263 60.72059356 -22.41280084 65.23840251 -24 70 C-24.66 70 -25.32 70 -26 70 C-26.28875 70.928125 -26.5775 71.85625 -26.875 72.8125 C-28 76 -28 76 -30 79 C-30.39013716 80.9896995 -30.73202649 82.99019869 -31 85 C-32.32 85 -33.64 85 -35 85 C-36.21212121 77.84848485 -36.21212121 77.84848485 -35.375 74.5 C-34.18552029 72.33730963 -32.9085359 70.31581945 -31.5625 68.25 C-29.79623193 65.49564574 -28.56222043 63.00682974 -27.625 59.875 C-25.62369869 53.21569917 -22.19271705 47.14926051 -19 41 C-18.34 41 -17.68 41 -17 41 C-16.9175 39.96875 -16.835 38.9375 -16.75 37.875 C-16 34 -16 34 -14.1171875 31.2109375 C-11.86047621 27.78839749 -10.65594425 24.63415354 -9.375 20.75 C-7.20820189 14.20820189 -7.20820189 14.20820189 -5 12 C-4.26027604 10.16604287 -3.57892059 8.30810683 -2.9375 6.4375 C-1.09722222 1.09722222 -1.09722222 1.09722222 0 0 Z " fill="#B07D64" transform="translate(322,164)" />
<path d="M0 0 C2.69665742 2.69665742 4.01826331 5.36474732 5 9 C5.42315747 13.39761477 5.37906497 17.77241779 5.34057617 22.18725586 C5.34101425 23.50501007 5.34145233 24.82276428 5.34190369 26.18045044 C5.34276122 29.77715291 5.32517515 33.37355265 5.30418181 36.97018504 C5.28537431 40.73511754 5.28366137 44.50005768 5.28010559 48.26502991 C5.27079705 55.38701443 5.2461995 62.50886011 5.21605712 69.63078362 C5.18247592 77.74201746 5.16601777 85.85325808 5.15097082 93.96454418 C5.1196488 110.64311061 5.06691162 127.32153756 5 144 C1.67485839 143.3818647 0.88840752 142.8960161 -1.75 140.4375 C-2.4925 139.633125 -3.235 138.82875 -4 138 C-3.505 137.01 -3.505 137.01 -3 136 C-0.03 138.475 -0.03 138.475 3 141 C2.89215038 126.05592549 2.77928773 111.11189485 2.66066074 96.16790199 C2.60567807 89.22718437 2.55225877 82.28646166 2.50268555 75.34570312 C2.45474941 68.63479566 2.40223749 61.92393764 2.34705925 55.21308517 C2.3268384 52.66575632 2.30809493 50.11841525 2.29092598 47.571064 C2.18451409 30.61130732 2.18451409 30.61130732 1.54272461 13.66552734 C1.48567651 12.61009955 1.48567651 12.61009955 1.42747593 11.53334999 C1.18581917 7.63441323 0.71009227 3.8407053 0 0 Z " fill="#D9B5A4" transform="translate(339,204)" />
<path d="M0 0 C17.82 0 35.64 0 54 0 C54 1.65 54 3.3 54 5 C53.195625 5.309375 52.39125 5.61875 51.5625 5.9375 C49.10919595 6.76335345 49.10919595 6.76335345 48 8 C47.71938397 12.77047254 48.01818307 16.61914152 50 21 C50.99 21.33 51.98 21.66 53 22 C53 23.65 53 25.3 53 27 C53.66 27 54.32 27 55 27 C55.50615298 28.26839526 56.00469099 29.53983102 56.5 30.8125 C56.7784375 31.52019531 57.056875 32.22789062 57.34375 32.95703125 C58 35 58 35 58 38 C56.5625 36.9375 56.5625 36.9375 55 35 C54.3125 31.3125 54.3125 31.3125 54 28 C53.34 28 52.68 28 52 28 C48.18176173 24.92077559 46.53866168 21.61598505 45 17 C44.53779597 14.07085156 44.65751457 12.03344234 45 9 C46.75 6 46.75 6 49 4 C50.32 4 51.64 4 53 4 C53 3.34 53 2.68 53 2 C37.82 2 22.64 2 7 2 C7 2.99 7 3.98 7 5 C7.928125 5.0928125 7.928125 5.0928125 8.875 5.1875 C9.57625 5.455625 10.2775 5.72375 11 6 C12.25 8.5625 12.25 8.5625 13 11 C11 9.625 11 9.625 9 8 C9 7.34 9 6.68 9 6 C6.03 5.67 3.06 5.34 0 5 C0 3.35 0 1.7 0 0 Z " fill="#CFA995" transform="translate(171,125)" />
<path d="M0 0 C2.34859231 3.52288846 2.25115058 4.95182554 2.25396729 9.12213135 C2.26242676 11.04419151 2.26242676 11.04419151 2.27105713 13.00508118 C2.2671683 14.4281927 2.26307195 15.85130367 2.25878906 17.27441406 C2.26149873 18.77087067 2.26505953 20.26732595 2.26940918 21.76377869 C2.2785415 25.83215626 2.27498464 29.9004326 2.26865101 33.96881199 C2.26359163 38.22699318 2.26828264 42.48516564 2.27142334 46.74334717 C2.27506475 53.89906369 2.27026097 61.05473896 2.26074219 68.21044922 C2.24987391 76.47591603 2.25337065 84.74128405 2.264395 93.00674844 C2.27348276 100.10495734 2.27474537 107.20313656 2.26951766 114.3013494 C2.26640401 118.53978578 2.26597166 122.77817581 2.27259064 127.01660919 C2.27838453 131.00568808 2.2743299 134.99464026 2.26280212 138.98370552 C2.26016573 140.44496768 2.26090313 141.90624056 2.26532745 143.3674984 C2.27082496 145.36830632 2.26269646 147.36913765 2.25396729 149.36993408 C2.25321323 150.48785969 2.25245918 151.60578529 2.25168228 152.75758743 C1.96832696 156.40804246 1.21576084 159.5492122 0 163 C-0.66 163.33 -1.32 163.66 -2 164 C-1.85904936 162.3745692 -1.71207913 160.74965949 -1.5625 159.125 C-1.48128906 158.22007812 -1.40007812 157.31515625 -1.31640625 156.3828125 C-1 154 -1 154 0 152 C0.0940196 149.99813344 0.12190532 147.99305568 0.12025452 145.98898315 C0.12162918 144.70728241 0.12300385 143.42558167 0.12442017 142.1050415 C0.12088078 140.67663551 0.11724596 139.24822975 0.11352539 137.81982422 C0.11324345 136.32201133 0.11340139 134.82419831 0.1139679 133.3263855 C0.11425559 129.25224167 0.10836338 125.17812709 0.10139394 121.10399008 C0.09515574 116.84920492 0.09455623 112.59441915 0.09336853 108.33963013 C0.0902566 100.27901608 0.08204505 92.21841555 0.07201904 84.15780747 C0.06085364 74.98260498 0.05534637 65.80740186 0.05032361 56.63219428 C0.03986233 37.75478852 0.02226554 18.87739534 0 0 Z " fill="#E4C2B2" transform="translate(165,211)" />
<path d="M0 0 C0.66 0 1.32 0 2 0 C2 16.5 2 33 2 50 C1.01 50.495 1.01 50.495 0 51 C-1.30326636 33.91790159 -1.21113948 17.08571766 0 0 Z " fill="#A19995" transform="translate(15,228)" />
<path d="M0 0 C2.70386458 -0.11343953 5.38121721 -0.16418159 8.0859375 -0.16796875 C8.89866119 -0.17129715 9.71138489 -0.17462555 10.54873657 -0.17805481 C12.27206861 -0.18312799 13.9954105 -0.18546302 15.71875 -0.18530273 C18.35693587 -0.18748506 20.99470094 -0.20562483 23.6328125 -0.22460938 C25.30468607 -0.22754403 26.97656162 -0.22952834 28.6484375 -0.23046875 C29.83450089 -0.24124702 29.83450089 -0.24124702 31.04452515 -0.25224304 C34.89443588 -0.2361783 36.72045792 -0.18636138 40 2 C40.6875 5.125 40.6875 5.125 41 8 C39.29159719 6.36587557 38.06546953 5.13093906 37 3 C25.12 2.67 13.24 2.34 1 2 C1 2.99 1 3.98 1 5 C2.19625 5.0825 3.3925 5.165 4.625 5.25 C9.04377027 5.7767929 11.51439983 7.29865987 15 10 C11.5317263 10 9.08733513 9.12682499 5.8125 8 C4.72582031 7.62875 3.63914063 7.2575 2.51953125 6.875 C1.68808594 6.58625 0.85664063 6.2975 0 6 C-0.33 4.35 -0.66 2.7 -1 1 C-0.67 0.67 -0.34 0.34 0 0 Z " fill="#D0A891" transform="translate(145,192)" />
<path d="M0 0 C15.51 0 31.02 0 47 0 C47.495 2.475 47.495 2.475 48 5 C45.69 5 43.38 5 41 5 C41.33 4.01 41.66 3.02 42 2 C28.47 2 14.94 2 1 2 C0.67 2.66 0.34 3.32 0 4 C0 2.68 0 1.36 0 0 Z " fill="#BC917B" transform="translate(313,125)" />
<path d="M0 0 C16.5 0 33 0 50 0 C50 1.32 50 2.64 50 4 C45.545 4.495 45.545 4.495 41 5 C41 5.66 41 6.32 41 7 C39.02 7.99 39.02 7.99 37 9 C37 7.68 37 6.36 37 5 C39.64 4.01 42.28 3.02 45 2 C23.22 1.505 23.22 1.505 1 1 C1 1.66 1 2.32 1 3 C2.60875 2.87625 2.60875 2.87625 4.25 2.75 C5.4875 2.8325 6.725 2.915 8 3 C9.32 4.32 10.64 5.64 12 7 C6.06 5.515 6.06 5.515 0 4 C0 2.68 0 1.36 0 0 Z " fill="#BE937C" transform="translate(323,193)" />
<path d="M0 0 C2.64 0.33 5.28 0.66 8 1 C8.495 3.475 8.495 3.475 9 6 C-3.54 6 -16.08 6 -29 6 C-28.67 5.34 -28.34 4.68 -28 4 C-17.44 3.67 -6.88 3.34 4 3 C2.68 2.67 1.36 2.34 0 2 C0 1.34 0 0.68 0 0 Z " fill="#B08570" transform="translate(190,380)" />
<path d="M0 0 C0.99 0 1.98 0 3 0 C3.12117188 1.12019531 3.24234375 2.24039062 3.3671875 3.39453125 C3.53603267 4.86723636 3.70532697 6.33989004 3.875 7.8125 C3.95363281 8.55048828 4.03226563 9.28847656 4.11328125 10.04882812 C4.54460286 13.71506181 4.9196783 15.87951745 7 19 C7.1953125 21.91796875 7.1953125 21.91796875 7.125 25.1875 C7.10695313 26.27417969 7.08890625 27.36085938 7.0703125 28.48046875 C7.03550781 29.72763672 7.03550781 29.72763672 7 31 C6.34 31.33 5.68 31.66 5 32 C2.1749445 21.26478911 0.32362402 11.11648525 0 0 Z " fill="#B5ADA9" transform="translate(16,280)" />
<path d="M0 0 C0.33 0.99 0.66 1.98 1 3 C-0.61594832 5.04119788 -2.2856382 7.04072937 -4 9 C-4.66 9 -5.32 9 -6 9 C-6 9.66 -6 10.32 -6 11 C-6.66 11 -7.32 11 -8 11 C-8.33 11.99 -8.66 12.98 -9 14 C-9.99 14.33 -10.98 14.66 -12 15 C-13.44870619 16.85804317 -13.44870619 16.85804317 -14.6875 19.0625 C-15.12449219 19.79597656 -15.56148437 20.52945313 -16.01171875 21.28515625 C-16.33785156 21.85105469 -16.66398437 22.41695312 -17 23 C-17.66 23 -18.32 23 -19 23 C-19.99 25.475 -19.99 25.475 -21 28 C-22.32 27.67 -23.64 27.34 -25 27 C-24.43152344 26.3709375 -23.86304687 25.741875 -23.27734375 25.09375 C-19.6487023 21.07134946 -16.02901429 17.04776371 -12.5 12.9375 C-8.55832373 8.40225365 -4.29039414 4.20283508 0 0 Z " fill="#A9A09C" transform="translate(94,70)" />
<path d="M0 0 C0.66 0 1.32 0 2 0 C0.02151977 7.07612799 -3.04687186 13.00460175 -6.875 19.25 C-7.39191406 20.12140625 -7.90882813 20.9928125 -8.44140625 21.890625 C-11.23704366 26.51011655 -13.96689412 30.3984811 -18 34 C-17.01 30.7 -16.02 27.4 -15 24 C-14.34 24 -13.68 24 -13 24 C-13 23.01 -13 22.02 -13 21 C-12.01 20.34 -11.02 19.68 -10 19 C-9.67 18.01 -9.34 17.02 -9 16 C-8.34 16 -7.68 16 -7 16 C-6.01 13.03 -5.02 10.06 -4 7 C-3.34 7 -2.68 7 -2 7 C-1.34 4.69 -0.68 2.38 0 0 Z " fill="#9E9790" transform="translate(488,359)" />
<path d="M0 0 C2.475 0.495 2.475 0.495 5 1 C5.33 1.99 5.66 2.98 6 4 C7.65 4.33 9.3 4.66 11 5 C11 5.66 11 6.32 11 7 C11.99 7.33 12.98 7.66 14 8 C14 8.66 14 9.32 14 10 C15.98 10.66 17.96 11.32 20 12 C20 12.99 20 13.98 20 15 C21.98 15.66 23.96 16.32 26 17 C26 17.66 26 18.32 26 19 C26.66 19 27.32 19 28 19 C28 19.66 28 20.32 28 21 C17.77721783 17.44990655 8.07710987 8.12312052 0 1 C0 0.67 0 0.34 0 0 Z " fill="#C5BDAC" transform="translate(100,440)" />
<path d="M0 0 C0.66 0.66 1.32 1.32 2 2 C2.17804338 4.56201404 2.23344374 7.00241246 2.1875 9.5625 C2.17960449 10.31104248 2.17170898 11.05958496 2.16357422 11.83081055 C2.08216735 17.32806756 1.89652484 22.82146449 1.625 28.3125 C1.5943042 29.022854 1.5636084 29.73320801 1.53198242 30.46508789 C1.32104781 34.08416683 0.95696489 36.90544984 -1 40 C-2.32312226 35.86524295 -2.62309719 31.36521334 -1.51196289 27.14746094 C-0.87068273 24.45757048 -0.78228446 21.90396498 -0.68359375 19.140625 C-0.64169922 18.02558594 -0.59980469 16.91054688 -0.55664062 15.76171875 C-0.51732422 14.60285156 -0.47800781 13.44398438 -0.4375 12.25 C-0.37272461 10.48849609 -0.37272461 10.48849609 -0.30664062 8.69140625 C-0.20065206 5.79438549 -0.09858362 2.89728065 0 0 Z " fill="#8A8380" transform="translate(513,243)" />
<path d="M0 0 C0.33 0 0.66 0 1 0 C1 18.15 1 36.3 1 55 C-1.97 55 -4.94 55 -8 55 C-8.33 54.34 -8.66 53.68 -9 53 C-7.865625 53.020625 -6.73125 53.04125 -5.5625 53.0625 C-3.7990625 53.0315625 -3.7990625 53.0315625 -2 53 C-1.505 52.505 -1.505 52.505 -1 52 C-0.87718048 50.37420782 -0.82217496 48.74322996 -0.79467773 47.11303711 C-0.77473251 46.07203354 -0.75478729 45.03102997 -0.73423767 43.95848083 C-0.71752518 42.8262056 -0.70081268 41.69393036 -0.68359375 40.52734375 C-0.66281265 39.37456436 -0.64203156 38.22178497 -0.62062073 37.03407288 C-0.55500036 33.33527843 -0.49618245 29.63641041 -0.4375 25.9375 C-0.39432665 23.43684121 -0.35071276 20.93618999 -0.30664062 18.43554688 C-0.19930632 12.29044338 -0.09756357 6.14526596 0 0 Z " fill="#AC7A60" transform="translate(353,331)" />
<path d="M0 0 C0.99 0 1.98 0 3 0 C3.67119549 1.4562545 4.33681807 2.91507867 5 4.375 C5.556875 5.59316406 5.556875 5.59316406 6.125 6.8359375 C7 9 7 9 7 11 C7.66 11 8.32 11 9 11 C9.67408308 12.26691507 10.33900497 13.53870749 11 14.8125 C11.556875 15.87404297 11.556875 15.87404297 12.125 16.95703125 C13 19 13 19 13 22 C13.99 22 14.98 22 16 22 C16 23.65 16 25.3 16 27 C12.26516942 23.64801082 9.93849436 19.91000889 7.4375 15.625 C7.05142578 14.97789062 6.66535156 14.33078125 6.26757812 13.6640625 C0 3.07217579 0 3.07217579 0 0 Z " fill="#B7ACA1" transform="translate(42,365)" />
<path d="M0 0 C0 0.99 0 1.98 0 3 C-0.66 3 -1.32 3 -2 3 C-2 3.66 -2 4.32 -2 5 C-4.64738916 6.4606285 -5.89448334 7 -9 7 C-9.33 8.32 -9.66 9.64 -10 11 C-11.32 11 -12.64 11 -14 11 C-14.66 12.32 -15.32 13.64 -16 15 C-16.99 15 -17.98 15 -19 15 C-19 15.66 -19 16.32 -19 17 C-20.96466413 18.06775224 -22.96855359 19.06553465 -25 20 C-25.66 19.67 -26.32 19.34 -27 19 C-18.57265197 11.60821593 -9.58289194 5.75935413 0 0 Z " fill="#BBB3AE" transform="translate(137,38)" />
<path d="M0 0 C10.89 0 21.78 0 33 0 C33 0.33 33 0.66 33 1 C24.42 1 15.84 1 7 1 C7 1.99 7 2.98 7 4 C7.928125 4.0928125 7.928125 4.0928125 8.875 4.1875 C9.57625 4.455625 10.2775 4.72375 11 5 C12.25 7.5625 12.25 7.5625 13 10 C11 8.625 11 8.625 9 7 C9 6.34 9 5.68 9 5 C6.03 4.67 3.06 4.34 0 4 C0 2.68 0 1.36 0 0 Z " fill="#B9907A" transform="translate(171,126)" />
<path d="M0 0 C0.33 0.99 0.66 1.98 1 3 C0.67 3.99 0.34 4.98 0 6 C-0.99 6.495 -0.99 6.495 -2 7 C-2.73401257 8.7862884 -3.39001031 10.60514816 -4 12.4375 C-5.78473581 17.78473581 -5.78473581 17.78473581 -8 20 C-8.70710678 21.64991582 -9.37943989 23.31562256 -10 25 C-10.66 25 -11.32 25 -12 25 C-12 25.66 -12 26.32 -12 27 C-12.66 26.67 -13.32 26.34 -14 26 C-9.65940705 17.1205129 -5.30345069 8.35695261 0 0 Z " fill="#B2ABA7" transform="translate(51,123)" />
<path d="M0 0 C0.66 0 1.32 0 2 0 C1.71653722 1.91789713 1.4228972 3.83429183 1.125 5.75 C0.96257813 6.81734375 0.80015625 7.8846875 0.6328125 8.984375 C0.06205609 11.70427592 -0.74066413 13.56528399 -2 16 C-2.16724737 19.16695956 -2.16724737 19.16695956 -2 22 C-2.66 22 -3.32 22 -4 22 C-4 23.32 -4 24.64 -4 26 C-4.66 26 -5.32 26 -6 26 C-5.13290842 17.15566585 -3.51279073 8.1965117 0 0 Z " fill="#B5A9A3" transform="translate(26,177)" />
<path d="M0 0 C1.79323253 0.28187936 3.58457126 0.5758281 5.375 0.875 C6.37273437 1.03742188 7.37046875 1.19984375 8.3984375 1.3671875 C11 2 11 2 13 4 C14.96690374 4.67292501 14.96690374 4.67292501 17.125 5.125 C18.40375 5.41375 19.6825 5.7025 21 6 C21.33 6.99 21.66 7.98 22 9 C17.00549741 8.3146345 12.4032406 6.97984349 7.625 5.4375 C6.88894531 5.20353516 6.15289062 4.96957031 5.39453125 4.72851562 C3.59518762 4.1559972 1.79742723 3.57850686 0 3 C0 2.01 0 1.02 0 0 Z " fill="#AEA59F" transform="translate(181,486)" />
<path d="M0 0 C0.66 0 1.32 0 2 0 C2 0.99 2 1.98 2 3 C2.99 3.33 3.98 3.66 5 4 C5 5.65 5 7.3 5 9 C5.66 9 6.32 9 7 9 C7.12117188 9.59167969 7.24234375 10.18335938 7.3671875 10.79296875 C8.26744643 15.03803585 9.20456621 19.02439661 11 23 C10.34 23.33 9.68 23.66 9 24 C7.67968946 20.94080952 6.3701594 17.87711716 5.0625 14.8125 C4.68931641 13.94818359 4.31613281 13.08386719 3.93164062 12.19335938 C3.57392578 11.35224609 3.21621094 10.51113281 2.84765625 9.64453125 C2.51773682 8.87471924 2.18781738 8.10490723 1.84790039 7.31176758 C0.95990651 4.89068666 0.44152652 2.53730576 0 0 Z " fill="#BEB8AF" transform="translate(27,331)" />
<path d="M0 0 C0.99 0 1.98 0 3 0 C5.6875 2.375 5.6875 2.375 8 5 C8 5.66 8 6.32 8 7 C8.66 7 9.32 7 10 7 C10.33 8.32 10.66 9.64 11 11 C11.99 11.33 12.98 11.66 14 12 C14 12.66 14 13.32 14 14 C14.99 14 15.98 14 17 14 C17 14.66 17 15.32 17 16 C16.01 16.33 15.02 16.66 14 17 C12.5 15.625 12.5 15.625 11 14 C11 13.34 11 12.68 11 12 C10.34 12 9.68 12 9 12 C7.39593747 10.24248022 5.86432623 8.41824776 4.375 6.5625 C3.55773437 5.55316406 2.74046875 4.54382813 1.8984375 3.50390625 C1.27195312 2.67761719 0.64546875 1.85132813 0 1 C0 0.67 0 0.34 0 0 Z " fill="#A8A29A" transform="translate(71,410)" />
<path d="M0 0 C0.99 0.495 0.99 0.495 2 1 C2 1.99 2 2.98 2 4 C2.66 4 3.32 4 4 4 C4.33773437 4.63808594 4.67546875 5.27617187 5.0234375 5.93359375 C5.46945313 6.75988281 5.91546875 7.58617187 6.375 8.4375 C7.03628906 9.67306641 7.03628906 9.67306641 7.7109375 10.93359375 C8.83418559 13.13466578 8.83418559 13.13466578 11 14 C11.78125 15.70703125 11.78125 15.70703125 12.5 17.8125 C13.50524206 20.65473263 14.56038505 23.34224933 16 26 C13.15631578 24.23495462 11.9379783 22.89146202 10.25 19.9375 C9 17 9 17 9 15 C8.34 15 7.68 15 7 15 C0 2.93103448 0 2.93103448 0 0 Z " fill="#D9B29D" transform="translate(178,234)" />
<path d="M0 0 C0.33 0.66 0.66 1.32 1 2 C0.51855469 3.72412109 0.51855469 3.72412109 -0.328125 5.7734375 C-0.78638672 6.8871875 -0.78638672 6.8871875 -1.25390625 8.0234375 C-1.58261719 8.79945313 -1.91132813 9.57546875 -2.25 10.375 C-2.71986328 11.52742188 -2.71986328 11.52742188 -3.19921875 12.703125 C-4.77824932 16.49017756 -6.28363184 19.86443922 -9 23 C-8.86722656 22.40832031 -8.73445313 21.81664062 -8.59765625 21.20703125 C-7.68994822 17.14553475 -6.7908887 13.08625829 -6 9 C-5.01 9 -4.02 9 -3 9 C-2.814375 7.329375 -2.814375 7.329375 -2.625 5.625 C-2.41875 4.42875 -2.2125 3.2325 -2 2 C-1.34 1.34 -0.68 0.68 0 0 Z " fill="#99918F" transform="translate(499,336)" />
<path d="M0 0 C6.3631147 -0.23911496 12.99409248 -0.42048428 19 2 C19.99 3.485 19.99 3.485 21 5 C13.76410027 4.39700836 7.00629124 2.8849413 0 1 C0 0.67 0 0.34 0 0 Z " fill="#968F8B" transform="translate(205,495)" />
<path d="M0 0 C0.66 0 1.32 0 2 0 C0.07289294 11.52164009 0.07289294 11.52164009 -2 17 C-2.99 16.34 -3.98 15.68 -5 15 C-5 14.34 -5 13.68 -5 13 C-4.34 13 -3.68 13 -3 13 C-2.67 9.7 -2.34 6.4 -2 3 C-1.34 3 -0.68 3 0 3 C0 2.01 0 1.02 0 0 Z " fill="#B1A8A4" transform="translate(508,301)" />
<path d="M0 0 C0.33 0.99 0.66 1.98 1 3 C-0.61594832 5.04119788 -2.2856382 7.04072937 -4 9 C-4.66 9 -5.32 9 -6 9 C-6 9.66 -6 10.32 -6 11 C-6.66 11 -7.32 11 -8 11 C-8.33 11.99 -8.66 12.98 -9 14 C-9.66 13.67 -10.32 13.34 -11 13 C-8.36517737 7.73035473 -4.20056089 4.02096446 0 0 Z " fill="#CEC9BF" transform="translate(94,70)" />
<path d="M0 0 C2.82255719 1.72489606 4.66899991 3.33463373 6.15234375 6.31640625 C7.15730766 8.86105071 8.08969831 11.42014937 9 14 C9.65987477 15.6693674 10.32462195 17.33684435 11 19 C10.01 18.67 9.02 18.34 8 18 C6.83203125 16.00390625 6.83203125 16.00390625 5.8125 13.5625 C5.46832031 12.75941406 5.12414062 11.95632813 4.76953125 11.12890625 C4 9 4 9 4 7 C3.01 6.67 2.02 6.34 1 6 C0.67 4.02 0.34 2.04 0 0 Z " fill="#CDA48F" transform="translate(223,310)" />
<path d="M0 0 C5.28 0 10.56 0 16 0 C16 0.99 16 1.98 16 3 C10.72 2.67 5.44 2.34 0 2 C0 1.34 0 0.68 0 0 Z " fill="#A5A09B" transform="translate(232,499)" />
<path d="M0 0 C2.64 0.33 5.28 0.66 8 1 C8.33 1.99 8.66 2.98 9 4 C9.70125 3.938125 10.4025 3.87625 11.125 3.8125 C14.65260212 4.04256101 16.93984351 5.29200568 20 7 C20 7.66 20 8.32 20 9 C17.04093732 8.34539923 14.44036387 7.38652554 11.6875 6.125 C7.81117721 4.36653569 3.91662667 2.66664965 0 1 C0 0.67 0 0.34 0 0 Z " fill="#AEA09D" transform="translate(147,473)" />
<path d="M0 0 C4.25874851 3.94328566 7.44082522 8.81676994 10 14 C10.28621109 16.82815368 9.91177817 18.2646655 9 21 C8.67 21 8.34 21 8 21 C7.896875 19.741875 7.79375 18.48375 7.6875 17.1875 C7.31133358 13.89874146 7.31133358 13.89874146 5.5 11.1875 C5.005 10.795625 4.51 10.40375 4 10 C3.67 9.01 3.34 8.02 3 7 C2.484375 6.525625 1.96875 6.05125 1.4375 5.5625 C0.963125 5.046875 0.48875 4.53125 0 4 C0 2.68 0 1.36 0 0 Z " fill="#B58871" transform="translate(242,292)" />
<path d="M0 0 C0.66 0 1.32 0 2 0 C2.66 5.61 3.32 11.22 4 17 C3.34 17 2.68 17 2 17 C-0.01167675 11.21642935 -0.22084624 6.09781001 0 0 Z " fill="#B1A8A4" transform="translate(507,198)" />
<path d="M0 0 C0.66 0 1.32 0 2 0 C0.49650623 3.66786393 -1.63728792 5.68910393 -4.625 8.25 C-5.44226563 8.95640625 -6.25953125 9.6628125 -7.1015625 10.390625 C-7.72804688 10.92171875 -8.35453125 11.4528125 -9 12 C-9 9.37886292 -8.68707555 7.49064888 -8 5 C-5.69 4.34 -3.38 3.68 -1 3 C-0.67 2.01 -0.34 1.02 0 0 Z " fill="#A29997" transform="translate(440,427)" />
<path d="M0 0 C1.48828125 1.11328125 1.48828125 1.11328125 3 3 C3.29296875 5.91796875 3.29296875 5.91796875 3.1875 9.1875 C3.14689453 10.81751953 3.14689453 10.81751953 3.10546875 12.48046875 C3.07066406 13.31191406 3.03585938 14.14335937 3 15 C2.01 15.495 2.01 15.495 1 16 C-1.0662997 10.28728907 -1.0006709 5.96345767 0 0 Z " fill="#BDB5AF" transform="translate(20,296)" />
<path d="M0 0 C0.33 0 0.66 0 1 0 C1 1.65 1 3.3 1 5 C0.360625 5.28875 -0.27875 5.5775 -0.9375 5.875 C-3.15206079 6.82823451 -3.15206079 6.82823451 -4 9 C-4.66 9 -5.32 9 -6 9 C-5.77183594 9.61488281 -5.54367188 10.22976562 -5.30859375 10.86328125 C-5.02113281 11.67152344 -4.73367187 12.47976562 -4.4375 13.3125 C-4.14746094 14.11300781 -3.85742188 14.91351563 -3.55859375 15.73828125 C-3 18 -3 18 -4 21 C-6.39307678 16.1141349 -7.64244174 12.56782839 -7 7 C-5.75 5.0625 -5.75 5.0625 -4 4 C-2.68 4 -1.36 4 0 4 C0 2.68 0 1.36 0 0 Z " fill="#F0D7C8" transform="translate(225,126)" />
<path d="M0 0 C1.32 1.32 2.64 2.64 4 4 C3.67 4.99 3.34 5.98 3 7 C3.99 7.33 4.98 7.66 6 8 C6.984375 9.77734375 6.984375 9.77734375 7.75 11.9375 C8.01296875 12.64777344 8.2759375 13.35804688 8.546875 14.08984375 C8.69640625 14.72019531 8.8459375 15.35054687 9 16 C8.67 16.66 8.34 17.32 8 18 C7.03697644 16.44038638 6.07978996 14.87716775 5.125 13.3125 C4.32449219 12.00732422 4.32449219 12.00732422 3.5078125 10.67578125 C1.46170563 7.04473668 0 4.20230146 0 0 Z " fill="#DEBCA7" transform="translate(251,198)" />
<path d="M0 0 C0.66 0 1.32 0 2 0 C1.01 4.29 0.02 8.58 -1 13 C-1.99 13 -2.98 13 -4 13 C-3.71517632 11.58194169 -3.42181856 10.16559621 -3.125 8.75 C-2.96257813 7.96109375 -2.80015625 7.1721875 -2.6328125 6.359375 C-2.00849925 4.03168856 -1.15161458 2.10968048 0 0 Z " fill="#B7AAA7" transform="translate(31,163)" />
<path d="M0 0 C0.66 0.33 1.32 0.66 2 1 C0.47793991 3.62901288 -0.84365964 5.84365964 -3 8 C-5.31765729 8.71927295 -7.65095874 9.3909893 -10 10 C-7.02911382 6.00073014 -3.87051275 3.07881696 0 0 Z " fill="#B2AAA5" transform="translate(108,58)" />
<path d="M0 0 C0.99 0 1.98 0 3 0 C4.65 4.29 6.3 8.58 8 13 C7.01 12.67 6.02 12.34 5 12 C3.61328125 9.78515625 3.61328125 9.78515625 2.3125 7.0625 C1.87550781 6.16660156 1.43851563 5.27070313 0.98828125 4.34765625 C0 2 0 2 0 0 Z " fill="#AAA49E" transform="translate(42,365)" />
<path d="M0 0 C2.30190759 2.8942113 4.00834841 5.80243385 5.625 9.125 C6.05039063 9.99382812 6.47578125 10.86265625 6.9140625 11.7578125 C7.27242187 12.49773437 7.63078125 13.23765625 8 14 C8.33 14.66 8.66 15.32 9 16 C6.64765027 15.0266139 5.11771236 14.12676716 3.375 12.25 C0.88981213 8.18332894 0 4.75633306 0 0 Z " fill="#E6C5B4" transform="translate(178,362)" />
<path d="M0 0 C1.65 0 3.3 0 5 0 C5 0.99 5 1.98 5 3 C0.545 3.495 0.545 3.495 -4 4 C-4 4.66 -4 5.32 -4 6 C-5.98 6.99 -5.98 6.99 -8 8 C-8 6.68 -8 5.36 -8 4 C-5.36 3.01 -2.72 2.02 0 1 C0 0.67 0 0.34 0 0 Z " fill="#AF836E" transform="translate(368,194)" />
<path d="M0 0 C0.33 0.99 0.66 1.98 1 3 C-1.70042194 10.56118143 -1.70042194 10.56118143 -5 13 C-5.66 13 -6.32 13 -7 13 C-5.35821735 8.22390502 -2.73453298 4.20617096 0 0 Z " fill="#B2ACA3" transform="translate(59,110)" />
<path d="M0 0 C1.8871875 0.0309375 1.8871875 0.0309375 3.8125 0.0625 C1.24103943 2.63396057 -0.7925417 2.86367997 -4.3125 3.6875 C-5.95605469 4.07808594 -5.95605469 4.07808594 -7.6328125 4.4765625 C-8.47585938 4.66992188 -9.31890625 4.86328125 -10.1875 5.0625 C-10.1875 4.4025 -10.1875 3.7425 -10.1875 3.0625 C-9.1975 3.0625 -8.2075 3.0625 -7.1875 3.0625 C-7.1875 2.4025 -7.1875 1.7425 -7.1875 1.0625 C-4.43671116 0.14557039 -2.82801087 -0.04636083 0 0 Z " fill="#B5AFA7" transform="translate(346.1875,486.9375)" />
<path d="M0 0 C0.33 0 0.66 0 1 0 C1.23433319 5.74116324 1.02996747 10.5867534 -1 16 C-1.66 16.33 -2.32 16.66 -3 17 C-2.54775239 11.08507728 -1.8417395 5.64800112 0 0 Z " fill="#DEBEAC" transform="translate(166,358)" />
<path d="M0 0 C-0.9639104 2.15026166 -1.71087924 3.74701933 -3.5 5.3125 C-5.76352255 7.85896287 -6.2014695 10.74445256 -7 14 C-7.75618591 11.72122356 -8.06544044 10.29899512 -7.546875 7.9296875 C-7.28390625 7.25164062 -7.0209375 6.57359375 -6.75 5.875 C-6.49734375 5.19179687 -6.2446875 4.50859375 -5.984375 3.8046875 C-4.57064807 1.2128548 -2.99689581 0 0 0 Z " fill="#ECCBBB" transform="translate(364,200)" />
<path d="M0 0 C0.66 0 1.32 0 2 0 C0.43181728 5.452999 -1.03810217 9.76486783 -5 14 C-4.67 11.69 -4.34 9.38 -4 7 C-3.34 7 -2.68 7 -2 7 C-1.34 4.69 -0.68 2.38 0 0 Z " fill="#9E8D87" transform="translate(488,359)" />
<path d="M0 0 C0.33 0.66 0.66 1.32 1 2 C0.01 3.65 -0.98 5.3 -2 7 C-3.875 6.25 -3.875 6.25 -6 5 C-7.25 2.875 -7.25 2.875 -8 1 C-6.8553125 1.309375 -6.8553125 1.309375 -5.6875 1.625 C-4.800625 1.74875 -3.91375 1.8725 -3 2 C-2.01 1.34 -1.02 0.68 0 0 Z " fill="#B68974" transform="translate(242,328)" />
<path d="M0 0 C0.99 1.485 0.99 1.485 2 3 C4.28019674 3.86934511 4.28019674 3.86934511 6.875 4.4375 C10.2514389 5.35479843 11.88856566 5.90713805 14.625 8.1875 C15.07875 8.785625 15.5325 9.38375 16 10 C10.36691325 8.56176509 5.26322777 6.45855991 0 4 C0 2.68 0 1.36 0 0 Z " fill="#DCB8A7" transform="translate(144,193)" />
<path d="M0 0 C0.66 0.33 1.32 0.66 2 1 C0.68 1.33 -0.64 1.66 -2 2 C-2.103125 2.61875 -2.20625 3.2375 -2.3125 3.875 C-2.539375 4.57625 -2.76625 5.2775 -3 6 C-3.99 6.66 -4.98 7.32 -6 8 C-8.1875 7.625 -8.1875 7.625 -10 7 C-8.90081184 6.01524786 -7.7954398 5.03739527 -6.6875 4.0625 C-6.07261719 3.51722656 -5.45773437 2.97195312 -4.82421875 2.41015625 C-3 1 -3 1 0 0 Z " fill="#E5C8B7" transform="translate(353,130)" />
<path d="M0 0 C6.625 -0.125 6.625 -0.125 10 1 C10 1.66 10 2.32 10 3 C10.66 3 11.32 3 12 3 C12 3.66 12 4.32 12 5 C10.37276701 4.54965877 8.74826336 4.08944646 7.125 3.625 C5.76761719 3.24214844 5.76761719 3.24214844 4.3828125 2.8515625 C2 2 2 2 0 0 Z " fill="#BDB7A8" transform="translate(167,482)" />
<path d="M0 0 C0.99 0.33 1.98 0.66 3 1 C1.37829621 2.00533667 -0.24747237 3.00411907 -1.875 4 C-3.23238281 4.8353125 -3.23238281 4.8353125 -4.6171875 5.6875 C-7 7 -7 7 -9 7 C-9 6.01 -9 5.02 -9 4 C-7.5682384 3.30062798 -6.12932968 2.61587282 -4.6875 1.9375 C-3.48673828 1.36322266 -3.48673828 1.36322266 -2.26171875 0.77734375 C-1.51535156 0.52082031 -0.76898438 0.26429688 0 0 Z " fill="#AAA29F" transform="translate(387,468)" />
<path d="M0 0 C0 0.99 0 1.98 0 3 C-1.53125 4.60546875 -1.53125 4.60546875 -3.5 6.1875 C-4.1496875 6.71730469 -4.799375 7.24710937 -5.46875 7.79296875 C-5.9740625 8.19128906 -6.479375 8.58960937 -7 9 C-6.875 6.1875 -6.875 6.1875 -6 3 C-2.9375 1.125 -2.9375 1.125 0 0 Z " fill="#DCD2CC" transform="translate(101,66)" />
<path d="M0 0 C0.99 0.33 1.98 0.66 3 1 C1.59447701 2.03612271 0.17508306 3.05344925 -1.25 4.0625 C-2.43335938 4.91521484 -2.43335938 4.91521484 -3.640625 5.78515625 C-4.41921875 6.18605469 -5.1978125 6.58695312 -6 7 C-8.296875 6.68359375 -8.296875 6.68359375 -10 6 C-9.401875 5.731875 -8.80375 5.46375 -8.1875 5.1875 C-5.96966765 4.11763032 -5.96966765 4.11763032 -4.4375 2.4375 C-3 1 -3 1 0 0 Z " fill="#BEB0AD" transform="translate(400,460)" />
<path d="M0 0 C0.60497605 2.20746985 1.01526021 3.82705097 0.8125 6.125 C0.544375 6.74375 0.27625 7.3625 0 8 C-1.31647119 8.69937532 -2.65022151 9.36729133 -4 10 C-4.33 10.99 -4.66 11.98 -5 13 C-4.39254603 8.14036821 -2.27241033 4.2594482 0 0 Z " fill="#E2BEAD" transform="translate(296,234)" />
<path d="M0 0 C0.66 0 1.32 0 2 0 C1.67 2.31 1.34 4.62 1 7 C0.01 7.33 -0.98 7.66 -2 8 C-2 8.99 -2 9.98 -2 11 C-2.66 11 -3.32 11 -4 11 C-3.52269162 9.5410574 -3.04308958 8.08286504 -2.5625 6.625 C-2.29566406 5.81289062 -2.02882812 5.00078125 -1.75390625 4.1640625 C-1 2 -1 2 0 0 Z " fill="#BAB6B1" transform="translate(36,151)" />
<path d="M0 0 C0.66 0.33 1.32 0.66 2 1 C1.34 1.66 0.68 2.32 0 3 C-0.99 3 -1.98 3 -3 3 C-3.33 3.99 -3.66 4.98 -4 6 C-6.31 6.33 -8.62 6.66 -11 7 C-10 5 -10 5 -7.78515625 3.67578125 C-6.88667969 3.22589844 -5.98820313 2.77601562 -5.0625 2.3125 C-4.16660156 1.85488281 -3.27070313 1.39726563 -2.34765625 0.92578125 C-1.57292969 0.62027344 -0.79820312 0.31476562 0 0 Z " fill="#A39F96" transform="translate(150,31)" />
<path d="M0 0 C1.32 0.33 2.64 0.66 4 1 C2.8803014 2.00593243 1.7540588 3.0045849 0.625 4 C-0.31472656 4.8353125 -0.31472656 4.8353125 -1.2734375 5.6875 C-1.84320313 6.120625 -2.41296875 6.55375 -3 7 C-3.66 7 -4.32 7 -5 7 C-4.67 5.35 -4.34 3.7 -4 2 C-2.68 2 -1.36 2 0 2 C0 1.34 0 0.68 0 0 Z " fill="#A79E9B" transform="translate(419,445)" />
<path d="M0 0 C0.66 0.33 1.32 0.66 2 1 C-0.85714286 9.57142857 -0.85714286 9.57142857 -5 13 C-4.01 9.7 -3.02 6.4 -2 3 C-1.34 3 -0.68 3 0 3 C0 2.01 0 1.02 0 0 Z " fill="#B5ABA7" transform="translate(475,380)" />
<path d="M0 0 C0.66 0 1.32 0 2 0 C1.54857225 1.77260631 1.08859477 3.5430368 0.625 5.3125 C0.36976563 6.29863281 0.11453125 7.28476562 -0.1484375 8.30078125 C-1 11 -1 11 -3 14 C-3 11.69 -3 9.38 -3 7 C-2.34 7 -1.68 7 -1 7 C-0.67 4.69 -0.34 2.38 0 0 Z " fill="#9F9A8B" transform="translate(503,321)" />
<path d="M0 0 C0.66 0 1.32 0 2 0 C4.44697666 4.36200187 5.50269348 8.02693484 6 13 C4 12 4 12 2.9296875 10.0390625 C2.58164063 9.24242187 2.23359375 8.44578125 1.875 7.625 C1.52179688 6.83351562 1.16859375 6.04203125 0.8046875 5.2265625 C0 3 0 3 0 0 Z " fill="#C49987" transform="translate(236,226)" />
<path d="M0 0 C0.33 0 0.66 0 1 0 C1.1875 2.8125 1.1875 2.8125 1 6 C-0.4375 7.5625 -0.4375 7.5625 -2 9 C-2.72197162 11.60611077 -2.72197162 11.60611077 -3 14 C-3.66 13.67 -4.32 13.34 -5 13 C-4.54554036 11.58208592 -4.08625056 10.16571954 -3.625 8.75 C-3.24214844 7.56664062 -3.24214844 7.56664062 -2.8515625 6.359375 C-2.04826333 4.13372042 -1.10288338 2.09068328 0 0 Z " fill="#BD937D" transform="translate(298,215)" />
<path d="M0 0 C1 4 1 4 0.0625 6.75 C-0.288125 7.4925 -0.63875 8.235 -1 9 C-1.66 9 -2.32 9 -3 9 C-3 9.66 -3 10.32 -3 11 C-3.66 10.67 -4.32 10.34 -5 10 C-3.35 6.7 -1.7 3.4 0 0 Z " fill="#A7A29D" transform="translate(42,139)" />
<path d="M0 0 C0.99 0 1.98 0 3 0 C3.33 0.99 3.66 1.98 4 3 C4.680625 3.45375 5.36125 3.9075 6.0625 4.375 C6.701875 4.91125 7.34125 5.4475 8 6 C8.25 8.6875 8.25 8.6875 8 11 C5.0843836 7.45960866 2.49872182 3.8373228 0 0 Z " fill="#BBA9A7" transform="translate(58,393)" />
<path d="M0 0 C0.33 0.66 0.66 1.32 1 2 C0.25 5.0625 0.25 5.0625 -1 8 C-1.99 8.33 -2.98 8.66 -4 9 C-4.33 10.32 -4.66 11.64 -5 13 C-5.33 12.34 -5.66 11.68 -6 11 C-4.02 7.37 -2.04 3.74 0 0 Z " fill="#E1C0B0" transform="translate(328,167)" />
<path d="M0 0 C0.66 0.99 1.32 1.98 2 3 C0.55746343 6.36591866 -1.33264727 8.51047079 -4 11 C-3.5247412 9.35303396 -3.04468109 7.70745272 -2.5625 6.0625 C-2.29566406 5.14597656 -2.02882813 4.22945312 -1.75390625 3.28515625 C-1 1 -1 1 0 0 Z " fill="#E5C4B6" transform="translate(333,155)" />
<path d="M0 0 C1.29608947 0.93137592 2.58671632 1.8703566 3.875 2.8125 C4.59429687 3.33457031 5.31359375 3.85664062 6.0546875 4.39453125 C8 6 8 6 10 9 C8.68 9 7.36 9 6 9 C6 8.34 6 7.68 6 7 C5.34 7 4.68 7 4 7 C1.875 4.625 1.875 4.625 0 2 C0 1.34 0 0.68 0 0 Z " fill="#B4AEA7" transform="translate(423,61)" />
<path d="M0 0 C2.64 0.33 5.28 0.66 8 1 C8 2.32 8 3.64 8 5 C6.02 5 4.04 5 2 5 C2.66 4.34 3.32 3.68 4 3 C2.68 2.67 1.36 2.34 0 2 C0 1.34 0 0.68 0 0 Z " fill="#AE836D" transform="translate(190,380)" />
<path d="M0 0 C1.32 0.33 2.64 0.66 4 1 C4.66 3.31 5.32 5.62 6 8 C5.01 8.495 5.01 8.495 4 9 C3.3309224 7.68872739 2.66480194 6.3759455 2 5.0625 C1.443125 3.96615234 1.443125 3.96615234 0.875 2.84765625 C0 1 0 1 0 0 Z " fill="#B8B1AE" transform="translate(37,356)" />
<path d="M0 0 C0.66 0 1.32 0 2 0 C2 0.99 2 1.98 2 3 C2.99 3.33 3.98 3.66 5 4 C6.75 6.375 6.75 6.375 8 9 C7.67 9.99 7.34 10.98 7 12 C3 6.25 3 6.25 3 4 C2.34 4 1.68 4 1 4 C0.67 2.68 0.34 1.36 0 0 Z " fill="#B98973" transform="translate(194,260)" />
<path d="M0 0 C0.33 0 0.66 0 1 0 C1.2295711 3.36704285 1.33943529 5.41370268 -0.375 8.375 C-0.91125 8.91125 -1.4475 9.4475 -2 10 C-2.66 10 -3.32 10 -4 10 C-3.52449439 8.51965236 -3.04448784 7.04074979 -2.5625 5.5625 C-2.29566406 4.73878906 -2.02882813 3.91507813 -1.75390625 3.06640625 C-1 1 -1 1 0 0 Z " fill="#C09A84" transform="translate(322,164)" />
<path d="M0 0 C-2 2 -2 2 -3.9453125 2.4140625 C-5.96354167 2.609375 -7.98177083 2.8046875 -10 3 C-8 0 -8 0 -6.125 -0.75 C-3.80466218 -1.02298092 -2.21024918 -0.71043724 0 0 Z " fill="#A39896" transform="translate(314,497)" />
<path d="M0 0 C0.99 0.33 1.98 0.66 3 1 C0.03 4.96 0.03 4.96 -3 9 C-3.33 7.68 -3.66 6.36 -4 5 C-3.01 4.34 -2.02 3.68 -1 3 C-0.67 2.01 -0.34 1.02 0 0 Z " fill="#9F9491" transform="translate(459,404)" />
<path d="M0 0 C3.48331435 3.01887244 4.79157144 5.56909529 6 10 C3.54896452 9.01958581 2.23241214 8.3486182 0.75 6.125 C0 4 0 4 0 0 Z " fill="#C49C89" transform="translate(224,262)" />
<path d="M0 0 C1.875 0.5 1.875 0.5 4 2 C4.98494554 4.65177645 5.45912382 7.20547307 6 10 C1.2 5.69230769 1.2 5.69230769 0.1875 2.1875 C0.125625 1.465625 0.06375 0.74375 0 0 Z " fill="#C59887" transform="translate(253,258)" />
<path d="M0 0 C2.95929119 2.75520215 5.03681826 5.46627288 7 9 C6.67 9.66 6.34 10.32 6 11 C4.98805294 9.92781799 3.99081943 8.84173622 3 7.75 C2.443125 7.14671875 1.88625 6.5434375 1.3125 5.921875 C0 4 0 4 0 0 Z " fill="#C19681" transform="translate(217,251)" />
<path d="M0 0 C0.6875 1.5625 0.6875 1.5625 1 4 C-0.25 7.6875 -0.25 7.6875 -2 11 C-2.99 11.33 -3.98 11.66 -5 12 C-3.41037341 7.96479403 -1.71767682 3.98188718 0 0 Z " fill="#E7C9B9" transform="translate(304,217)" />
<path d="M0 0 C1.875 0.5 1.875 0.5 4 2 C4.98494554 4.65177645 5.45912382 7.20547307 6 10 C2.51668565 6.98112756 1.20842856 4.43090471 0 0 Z " fill="#C49B86" transform="translate(187,140)" />
<path d="M0 0 C2.875 -0.125 2.875 -0.125 6 0 C6.66 0.66 7.32 1.32 8 2 C7.67 2.33 7.34 2.66 7 3 C4.66702567 3.04092937 2.33294775 3.04241723 0 3 C0 2.01 0 1.02 0 0 Z " fill="#938982" transform="translate(283,499)" />
<path d="M0 0 C0.66 0.33 1.32 0.66 2 1 C0.02 3.31 -1.96 5.62 -4 8 C-4.33 6.68 -4.66 5.36 -5 4 C-3.35 2.68 -1.7 1.36 0 0 Z " fill="#A28D89" transform="translate(453,413)" />
<path d="M0 0 C2.31 0.33 4.62 0.66 7 1 C7.33 2.32 7.66 3.64 8 5 C5.125 4.1875 5.125 4.1875 2 3 C1.34 2.01 0.68 1.02 0 0 Z " fill="#B48972" transform="translate(331,378)" />
<path d="M0 0 C2.475 0.495 2.475 0.495 5 1 C5 1.66 5 2.32 5 3 C5.99 3 6.98 3 8 3 C8 3.66 8 4.32 8 5 C7.01 5.33 6.02 5.66 5 6 C3.5 4.625 3.5 4.625 2 3 C2 2.34 2 1.68 2 1 C1.34 0.67 0.68 0.34 0 0 Z " fill="#9F9895" transform="translate(80,421)" />
<path d="M0 0 C0.99 0.33 1.98 0.66 3 1 C3 1.99 3 2.98 3 4 C2.34 4 1.68 4 1 4 C1 5.32 1 6.64 1 8 C0.34 8 -0.32 8 -1 8 C-0.67 5.36 -0.34 2.72 0 0 Z " fill="#A49E98" transform="translate(21,195)" />
<path d="M0 0 C2.74277578 3.19990508 4.6302836 6.00499382 6 10 C4.68 10 3.36 10 2 10 C1.34 6.7 0.68 3.4 0 0 Z " fill="#908986" transform="translate(480,128)" />
<path d="M0 0 C0 0.99 0 1.98 0 3 C-0.66 3 -1.32 3 -2 3 C-2 3.66 -2 4.32 -2 5 C-3.98 5.66 -5.96 6.32 -8 7 C-8 6.34 -8 5.68 -8 5 C-5.36 3.35 -2.72 1.7 0 0 Z " fill="#C0B9B2" transform="translate(137,38)" />
<path d="M0 0 C0.598125 0.185625 1.19625 0.37125 1.8125 0.5625 C1.4825 1.2225 1.1525 1.8825 0.8125 2.5625 C-2.25 3.1875 -2.25 3.1875 -5.1875 3.5625 C-5.1875 2.5725 -5.1875 1.5825 -5.1875 0.5625 C-2.1875 -0.4375 -2.1875 -0.4375 0 0 Z " fill="#B7AFA7" transform="translate(323.1875,493.4375)" />
<path d="M0 0 C0.8971875 0.2784375 0.8971875 0.2784375 1.8125 0.5625 C-4.9375 4.5625 -4.9375 4.5625 -7.1875 4.5625 C-7.1875 3.9025 -7.1875 3.2425 -7.1875 2.5625 C-6.5275 2.5625 -5.8675 2.5625 -5.1875 2.5625 C-5.1875 1.9025 -5.1875 1.2425 -5.1875 0.5625 C-2.1875 -0.4375 -2.1875 -0.4375 0 0 Z " fill="#A49391" transform="translate(375.1875,475.4375)" />
<path d="M0 0 C2.31 0.33 4.62 0.66 7 1 C7.66 2.32 8.32 3.64 9 5 C5.22454612 3.90931332 2.52956528 3.0916909 0 0 Z " fill="#AFA6A1" transform="translate(134,465)" />
<path d="M0 0 C0.66 0 1.32 0 2 0 C5.22265625 5.17578125 5.22265625 5.17578125 6 7 C5.67 7.99 5.34 8.98 5 10 C2.35534962 6.8745041 1.15585285 3.91211733 0 0 Z " fill="#958F8C" transform="translate(32,345)" />
<path d="M0 0 C0.99 0 1.98 0 3 0 C3.33 1.98 3.66 3.96 4 6 C3.01 6 2.02 6 1 6 C0.67 4.02 0.34 2.04 0 0 Z " fill="#9E9390" transform="translate(22,314)" />
<path d="M0 0 C2.33524782 2.25740623 4.18705073 4.2805761 6 7 C5.67 7.99 5.34 8.98 5 10 C4.15801693 8.90241493 3.32669329 7.79664683 2.5 6.6875 C2.0359375 6.07261719 1.571875 5.45773438 1.09375 4.82421875 C0 3 0 3 0 0 Z " fill="#F1D3C1" transform="translate(215,245)" />
<path d="M0 0 C0.66 0.33 1.32 0.66 2 1 C1.34 2.32 0.68 3.64 0 5 C-2.31 5.33 -4.62 5.66 -7 6 C-4.83312509 3.72478134 -2.54379491 1.84205838 0 0 Z " fill="#9C9590" transform="translate(127,44)" />
<path d="M0 0 C3.08089673 2.77280706 4.68775452 5.06326356 6 9 C5.01 8.67 4.02 8.34 3 8 C0 2.77777778 0 2.77777778 0 0 Z " fill="#DEBDA9" transform="translate(228,320)" />
<path d="M0 0 C2.27521866 2.16687491 4.15794162 4.45620509 6 7 C5.67 7.66 5.34 8.32 5 9 C2.5 6.75 2.5 6.75 0 4 C0 2.68 0 1.36 0 0 Z " fill="#BE9582" transform="translate(242,292)" />
<path d="M0 0 C1.32 0.33 2.64 0.66 4 1 C4.33 1.99 4.66 2.98 5 4 C5.66 4 6.32 4 7 4 C7 4.66 7 5.32 7 6 C4.625 5.25 4.625 5.25 2 4 C0.6875 1.875 0.6875 1.875 0 0 Z " fill="#B4ADA1" transform="translate(447,86)" />
<path d="M0 0 C1.67654729 0.27942455 3.34608154 0.60828247 5 1 C5.33 1.99 5.66 2.98 6 4 C3.98944339 3.73775349 1.98821313 3.39764263 0 3 C-0.66 2.34 -1.32 1.68 -2 1 C-1.34 0.67 -0.68 0.34 0 0 Z " fill="#B4ACA8" transform="translate(197,491)" />
<path d="M0 0 C2.72426311 2.35277269 3.8141763 4.62496331 5 8 C4.01 7.67 3.02 7.34 2 7 C2 6.34 2 5.68 2 5 C1.34 5 0.68 5 0 5 C0 3.35 0 1.7 0 0 Z " fill="#BF9987" transform="translate(263,222)" />
<path d="M0 0 C0.66 0 1.32 0 2 0 C2.625 2.875 2.625 2.875 3 6 C2.34 6.66 1.68 7.32 1 8 C1 6.68 1 5.36 1 4 C0.34 4 -0.32 4 -1 4 C-0.67 2.68 -0.34 1.36 0 0 Z " fill="#B2AAA3" transform="translate(502,180)" />
<path d="M0 0 C0.33 0.99 0.66 1.98 1 3 C-1.97 5.475 -1.97 5.475 -5 8 C-5.66 7.67 -6.32 7.34 -7 7 C-4.69 4.69 -2.38 2.38 0 0 Z " fill="#7F7C72" transform="translate(94,70)" />
</svg>
