<svg xmlns="http://www.w3.org/2000/svg" viewBox="0 0 537 508"><path fill="#f2e3db" d="M264 4h2a210 210 0 0 1 62 7 160 160 0 0 1 41 15q18 8 33 19l2 1 10 7 3 2v2l2 1 11 8 4 4 2 2 8 7 8 9v2h2q16 18 27 38l4 7 7 14 1 3 3 6 3 6 6 20 1 2q8 29 9 59v21a242 242 0 0 1-59 147l-1 2q-13 15-29 29l-5 4c-24 20-55 37-85 44l-4 2-10 3h-4l-2 1-5 1-11 2h-2l-39 1q-26 1-50-5l-9-2q-26-7-50-20l-3-1q-37-20-65-50v-2h-2l-4-5-3-3-2-3-2-2c-30-36-50-83-54-130A254 254 0 0 1 71 95l1-2q15-18 34-33l2-2 21-15 3-2q8-5 17-9l7-4c13-7 13-7 19-8l5-2 12-4 2-1 19-4 8-2 12-2h3z"/><path fill="#ad7052" d="M171 125h54v5l-2 1-4 2q0 7 2 13l3 1v5h2l1 3 7 16 4 8h2l1 2 15 29 6 7 3 5 4 8 3 8 3 6h2l1 2 15 26 1 5h2l2 4 2 4 1 3 8 11 3 5 6 9 3 5 6 10 1 2 5 5 1 3 7 9 3 1V223q0-10-4-18-5-5-11-7l-6-1v-4h50v4l-9 1v2l-2 1q-4 2-4 5-3 13-2 27v5l-1 14v135l-15-3-2-1q-11-5-21-17l-1-2-6-9-7-8q-4-6-5-12l-1-2-3-1-1-4-6-8-2-6-2-1-2-5-6-10-5-11-4-4-3-6-2-1-2-6-3-4-4-8-7-13-2-5-3-2-3-6-7-13v-2h-2l-1-3q-2-7-7-13l-2-1-3-9q-1-6-6-11l-4-8-2-2-6-13-6-8-5-10q-2-4-6-6v-2l-9-1z"/><path fill="#ae7052" d="M146 194h36l4 8h2l7 11q1 5 5 8 9 10 12 23l3 1 2 4 8 13 7 13q2 6 6 10v2h2l12 19-2 9-1 3q-4 9-9 17l-6-4-2-5-3-5-1-7-3-1-3-4-1-2-1-4-3-1-2-6-9-15-5-9-4-6v-2h-2l-1-3-4-7-1-6-3-1-4-7v-2h-2l-2-6h-2v100c0 22 0 22 7 43q6 5 16 7v4h-49v-4l3-1q8-3 12-8l1-12V217l-3-9v-2l-3-1-1-2-3-3-10-3z"/><path fill="#a96f52" d="M313 125h47l1 5h-2q-7 1-13 5-7 7-10 15l-2 5-5 11-6 12-2 5-3 7-1 3-8 18-5 9-6 14h-2l-1 3-3 6-1 6h-4v-10l3-7 4-8q4-10 9-19h2v-3l3-7 5-10c2-7 2-7 4-9l3-9 1-2 3-1v-2l2-6q4-9 3-18h-2l-3-4v-3l-11-2z"/><path fill="#b07d64" d="M322 164h1q1 6-2 10l2 1-1 7-2 2-1 4-6 14-6 11-3 7-6 14h-2l-1 3-3 6-1 6h-4v-10l3-7 4-8q4-10 9-19h2v-3l3-7 5-10c2-7 2-7 4-9l2-6z"/><path fill="#d9b5a4" d="M339 204q4 4 5 9v135q-3 0-7-4l-2-2 1-2 6 5v-66l-1-20v-41l-1-2z"/><path fill="#cfa995" d="M171 125h54v5l-2 1-4 2q0 7 2 13l3 1v5h2l2 4v2l1 5-3-3-1-7h-2q-5-4-7-11v-8l4-5h4v-2h-46v3h2l2 1 2 5-4-3v-2l-9-1z"/><path fill="#e4c2b2" d="M165 211q3 5 2 9v144l-2 10-2 1v-5l1-3 1-4V211"/><path fill="#a19995" d="M15 228h2v50l-2 1z"/><path fill="#d0a891" d="M145 192h31q5-1 9 2l1 6-4-5-36-1v3h4q6 1 10 5l-9-2-3-1-3-1-1-5z"/><path fill="#bc917b" d="M313 125h47l1 5h-7l1-3h-41l-1 2z"/><path fill="#be937c" d="M323 193h50v4l-9 1v2l-4 2v-4l8-3-44-1v2h7l4 4-12-3z"/><path fill="#b08570" d="m190 380 8 1 1 5h-38l1-2 32-1-4-1z"/><path fill="#b5ada9" d="M16 280h3v3l1 5v2l3 9v12l-2 1q-5-16-5-32"/><path fill="#a9a09c" d="m94 70 1 3-5 6h-2v2h-2l-1 3-3 1-3 4-1 2-1 2h-2l-2 5-4-1 2-2z"/><path fill="#9e9790" d="M488 359h2q-3 10-9 19l-1 3-10 12 3-10h2v-3l3-2 1-3h2l3-9h2z"/><path fill="#c5bdac" d="m100 440 5 1 1 3 5 1v2l3 1v2l6 2v3l6 2v2h2v2q-15-8-28-20z"/><path fill="#8a8380" d="m513 243 2 2v28q-1 6-3 10-2-6-1-13l1-8v-3l1-4v-12"/><path fill="#ac7a60" d="M353 331h1v55h-9l-1-2h7l1-1v-15l1-11v-26"/><path fill="#b7aca1" d="M42 365h3l2 4 1 3 1 4h2l2 4 1 2 1 5h3v5q-5-5-9-11l-1-2c-6-11-6-11-6-14"/><path fill="#bbb3ae" d="M137 38v3h-2v2l-7 2-1 4h-4l-2 4h-3v2l-6 3-2-1q12-10 27-19"/><path fill="#b9907a" d="M171 126h33v1h-26v3h2l2 1 2 5-4-3v-2l-9-1z"/><path fill="#b2aba7" d="m51 123 1 3-1 3-2 1-2 5-4 8-2 5h-2v2l-2-1z"/><path fill="#b5a9a3" d="M26 177h2l-1 6v3l-3 7v6h-2v4h-2q1-14 6-26"/><path fill="#aea59f" d="m181 486 5 1h3l5 3 4 1 4 1 1 3-14-4h-3l-5-2z"/><path fill="#beb8af" d="M27 331h2v3l3 1v5h2v2l4 12-2 1-4-9-1-3-1-2-1-3z"/><path fill="#a8a29a" d="M71 410h3l5 5v2h2l1 4 3 1v2h3v2l-3 1-3-3v-2h-2l-5-5-2-3-2-3z"/><path fill="#d9b29d" d="m178 234 2 1v3h2l1 2 1 2 2 3 3 3 2 4 3 8-6-6-1-5h-2c-7-12-7-12-7-15"/><path fill="#99918f" d="m499 336 1 2-1 4-1 2-1 2-1 3q-2 5-6 10v-2l3-12h3v-3l1-4z"/><path fill="#968f8b" d="M205 495q10 0 19 2l2 3-21-4z"/><path fill="#b1a8a4" d="M508 301h2l-4 17-3-2v-2h2l1-10h2z"/><path fill="#cec9bf" d="m94 70 1 3-5 6h-2v2h-2l-1 3-2-1z"/><path fill="#cda48f" d="M223 310q5 2 6 6l3 8 2 5-3-1-2-4-1-3-1-4-3-1z"/><path fill="#a5a09b" d="M232 499h16v3l-16-1z"/><path fill="#aea09d" d="m147 473 8 1 1 3h2q5 0 9 3v2l-8-3-12-5z"/><path fill="#b58871" d="m242 292 10 14-1 7h-1v-4l-3-6-1-1-1-3-2-1-1-2z"/><path fill="#b1a8a4" d="M507 198h2l2 17h-2q-2-8-2-17"/><path fill="#a29997" d="M440 427h2q-3 6-7 8l-2 2-2 2 1-7 7-2z"/><path fill="#bdb5af" d="m20 296 3 3v12l-2 1q-3-8-1-16"/><path fill="#f0d7c8" d="M225 126h1v5l-2 1-3 3h-2l1 2 1 2v8q-4-6-3-14l3-3h4z"/><path fill="#debca7" d="m251 198 4 4-1 3 3 1 2 4 1 2v2l-1 2-3-5-1-2q-4-5-4-11"/><path fill="#b7aaa7" d="M31 163h2l-3 13h-3l1-4v-3z"/><path fill="#b2aaa5" d="m108 58 2 1-5 7-7 2z"/><path fill="#aaa49e" d="M42 365h3l5 13-3-1-3-5-1-3z"/><path fill="#e6c5b4" d="m178 362 7 12 1 2 1 2-6-4q-3-5-3-12"/><path fill="#af836e" d="M368 194h5v3l-9 1v2l-4 2v-4l8-3z"/><path fill="#b2aca3" d="m59 110 1 3c-3 8-3 8-6 10h-2z"/><path fill="#b5afa7" d="M346 487h4q-4 4-8 4h-3l-3 1v-2h3v-2z"/><path fill="#debeac" d="M166 358h1q1 9-2 16l-2 1q0-8 3-17"/><path fill="#eccbbb" d="m364 200-3 5q-3 5-4 9l-1-6 1-2 1-2q1-4 6-4"/><path fill="#9e8d87" d="M488 359h2q-2 8-7 14l1-7h2z"/><path fill="#b68974" d="m242 328 1 2-3 5-4-2-2-4 2 1h3z"/><path fill="#dcb8a7" d="m144 193 2 3 5 1 8 4 1 2q-9-2-16-6z"/><path fill="#e5c8b7" d="m353 130 2 1-4 1v2l-1 2-3 2-4-1 3-3 2-2z"/><path fill="#bdb7a8" d="m167 482 10 1v2h2v2l-5-1-3-1z"/><path fill="#aaa29f" d="m387 468 3 1-5 3-3 2-4 1v-3l4-2 3-1z"/><path fill="#dcd2cc" d="M101 66v3l-3 3-2 2-2 1 1-6z"/><path fill="#beb0ad" d="m400 460 3 1-4 3-3 2-2 1-4-1 2-1 4-3z"/><path fill="#e2bead" d="m296 234 1 6-1 2-4 2-1 3z"/><path fill="#bab6b1" d="M36 151h2l-1 7-3 1v3h-2l1-4 1-3z"/><path fill="#a39f96" d="m150 31 2 1-2 2h-3l-1 3-7 1 3-3 3-2 3-1z"/><path fill="#a79e9b" d="m419 445 4 1-3 3-2 2-2 1h-2l1-5h4z"/><path fill="#b5aba7" d="m475 380 2 1c-3 9-3 9-7 12l3-10h2z"/><path fill="#9f9a8b" d="M503 321h2l-1 5-1 3-3 6v-7h2z"/><path fill="#c49987" d="M236 226h2q4 6 4 13l-3-3-1-2-1-3z"/><path fill="#bd937d" d="M298 215h1v6l-3 3-1 5-2-1 1-4 1-3z"/><path fill="#a7a29d" d="M42 139v7l-1 2h-2v2l-2-1z"/><path fill="#bba9a7" d="M58 393h3l1 3 2 1 2 2v5z"/><path fill="#e1c0b0" d="m328 167 1 2-2 6-3 1-1 4-1-2z"/><path fill="#e5c4b6" d="m333 155 2 3q-1 5-6 8l1-5 1-3z"/><path fill="#b4aea7" d="m423 61 4 3 2 1 4 5h-4v-2h-2l-4-5z"/><path fill="#ae836d" d="m190 380 8 1v4h-6l2-2-4-1z"/><path fill="#b8b1ae" d="m37 356 4 1 2 7-2 1-2-4-1-2z"/><path fill="#b98973" d="M194 260h2v3l3 1 3 5-1 3-4-8h-2z"/><path fill="#c09a84" d="M322 164h1l-1 8-2 2h-2l1-4 1-3z"/><path fill="#a39896" d="m314 497-4 2-6 1 4-4z"/><path fill="#9f9491" d="m459 404 3 1-6 8-1-4 3-2z"/><path fill="#c49c89" d="M224 262q5 4 6 10l-5-4z"/><path fill="#c59887" d="m253 258 4 2 2 8c-5-4-5-4-6-8z"/><path fill="#c19681" d="m217 251 7 9-1 2-3-3-2-2z"/><path fill="#e7c9b9" d="m304 217 1 4-3 7-3 1z"/><path fill="#c49b86" d="m187 140 4 2 2 8q-4-4-6-10"/><path fill="#938982" d="M283 499h6l2 2-1 1h-7z"/><path fill="#a28d89" d="m453 413 2 1-6 7-1-4z"/><path fill="#b48972" d="m331 378 7 1 1 4-6-2z"/><path fill="#9f9895" d="m80 421 5 1v2h3v2l-3 1-3-3v-2z"/><path fill="#a49e98" d="m21 195 3 1v3h-2v4h-2z"/><path fill="#908986" d="M480 128q5 4 6 10h-4z"/><path fill="#c0b9b2" d="M137 38v3h-2v2l-6 2v-2z"/><path fill="#b7afa7" d="m323 493 2 1-1 2-6 1v-3z"/><path fill="#a49391" d="m375 475 2 1-9 4v-2h2v-2z"/><path fill="#afa6a1" d="m134 465 7 1 2 4q-5-1-9-5"/><path fill="#958f8c" d="M32 345h2l4 7-1 3q-4-4-5-10"/><path fill="#9e9390" d="M22 314h3l1 6h-3z"/><path fill="#f1d3c1" d="m215 245 6 7-1 3-2-3-2-2z"/><path fill="#9c9590" d="m127 44 2 1-2 4-7 1z"/><path fill="#debda9" d="M228 320q5 4 6 9l-3-1c-3-5-3-5-3-8"/><path fill="#be9582" d="m242 292 6 7-1 2-5-5z"/><path fill="#b4ada1" d="m447 86 4 1 1 3h2v2l-5-2z"/><path fill="#b4aca8" d="m197 491 5 1 1 3-6-1-2-2z"/><path fill="#bf9987" d="M263 222q4 3 5 8l-3-1v-2h-2z"/><path fill="#b2aaa3" d="M502 180h2l1 6-2 2v-4h-2z"/><path fill="#7f7c72" d="m94 70 1 3-6 5-2-1z"/></svg>